<svg width="650" height="544" viewBox="0 0 650 544" fill="none" xmlns="http://www.w3.org/2000/svg">
<path fill-rule="evenodd" clip-rule="evenodd" d="M510.746 67.5939C558.171 86.7949 558.243 154.939 577.603 202.298C602.887 264.15 673.851 329.367 641.701 387.945C608.353 448.706 508.098 413.089 445.538 442.926C396.198 466.457 371.48 557.001 318.951 541.874C258.791 524.549 282.268 415.176 229.924 380.833C180.265 348.253 103.018 405.138 55.7427 369.186C9.33565 333.895 -2.93271 264.95 1.05331 206.785C5.12805 147.326 32.3798 87.9952 77.6677 49.2516C120.546 12.5689 182.332 -7.72715 237.4 4.59181C288.691 16.066 298.926 98.4012 350.143 110.206C405.23 122.903 458.346 46.3786 510.746 67.5939Z" fill="#0B699E"/>
</svg>
